<?xml version="1.0" encoding="UTF-8"?>
<svg version="1.1" xmlns="http://www.w3.org/2000/svg" width="1024" height="1024">
<path d="M0 0 C337.92 0 675.84 0 1024 0 C1024 337.92 1024 675.84 1024 1024 C686.08 1024 348.16 1024 0 1024 C0 686.08 0 348.16 0 0 Z " fill="#FCFDFD" transform="translate(0,0)"/>
<path d="M0 0 C1.26085419 -0.00189583 1.26085419 -0.00189583 2.54718018 -0.00382996 C5.28370821 0.00136487 8.0178233 0.04550282 10.75390625 0.09375 C12.64363264 0.11129418 14.53336256 0.12846253 16.4230957 0.14526367 C27.98483676 0.29173202 39.49276352 0.81183376 51.00390625 1.90625 C52.88710571 2.08220703 52.88710571 2.08220703 54.80834961 2.26171875 C60.92009718 2.92643542 65.81436359 3.87087211 71.31640625 6.59375 C73.36929177 7.24964047 75.43210603 7.87530659 77.50390625 8.46875 C101.49663013 15.83852867 122.38364703 31.14293632 135.09375 53.08203125 C136.31640625 55.59375 136.31640625 55.59375 136.31640625 57.59375 C136.97640625 57.59375 137.63640625 57.59375 138.31640625 57.59375 C140.08103308 60.68184695 140.31640625 61.82687136 140.31640625 65.59375 C140.97640625 65.59375 141.63640625 65.59375 142.31640625 65.59375 C142.54714844 66.40457031 142.77789062 67.21539062 143.015625 68.05078125 C144.68144189 73.70665755 146.43581197 79.09089208 149.00390625 84.40625 C151.15960884 88.91603272 152.03462442 92.61560427 152.31640625 97.59375 C152.97640625 97.59375 153.63640625 97.59375 154.31640625 97.59375 C154.39117187 96.99691406 154.4659375 96.40007812 154.54296875 95.78515625 C156.51262146 82.78931045 161.37652891 70.90192399 167.37890625 59.28125 C167.79011719 58.47494141 168.20132812 57.66863281 168.625 56.83789062 C170.95347372 52.4812718 173.016247 49.2769364 177.31640625 46.59375 C181.94185089 45.91920599 184.58942081 46.82513224 188.31640625 49.59375 C189.9236626 52.80826269 189.3738881 56.02987536 189.31640625 59.59375 C188.65640625 59.59375 187.99640625 59.59375 187.31640625 59.59375 C186.91421875 60.6765625 186.91421875 60.6765625 186.50390625 61.78125 C185.31640625 64.59375 185.31640625 64.59375 183.9296875 66.77734375 C181.95667271 70.22175939 180.65405574 73.74144544 179.31640625 77.46875 C178.81807621 78.84175309 178.31808669 80.21415506 177.81640625 81.5859375 C177.56947021 82.26188965 177.32253418 82.9378418 177.06811523 83.63427734 C176.37209911 85.44857595 175.58412473 87.22686889 174.7890625 89 C173.01277244 93.33471315 171.85960731 97.67439242 170.75390625 102.21875 C170.53774658 103.09305664 170.32158691 103.96736328 170.09887695 104.86816406 C168.43901587 111.73490014 167.17425345 118.57732809 166.31640625 125.59375 C167.35796875 125.57054687 168.39953125 125.54734375 169.47265625 125.5234375 C178.41578487 125.38887532 186.9774947 125.85442082 195.828125 127.15625 C199.03839433 127.55888176 202.08611687 127.67314267 205.31640625 127.59375 C205.63279053 126.9953833 205.9491748 126.3970166 206.27514648 125.78051758 C218.09706952 103.51578896 229.2999004 82.86012976 254.61328125 74.33984375 C258.86695174 73.16578152 262.91528152 72.74168697 267.31640625 72.59375 C268.48429687 72.5421875 269.6521875 72.490625 270.85546875 72.4375 C289.57043783 71.98010768 304.20481992 78.3915941 317.94140625 91.00390625 C321.05752683 94.07508278 323.88511899 96.94681911 326.31640625 100.59375 C326.31640625 101.58375 326.31640625 102.57375 326.31640625 103.59375 C326.97640625 103.59375 327.63640625 103.59375 328.31640625 103.59375 C335.39562177 116.28751576 335.7169758 128.41062069 335.31640625 142.59375 C336.05246094 142.31660156 336.78851562 142.03945313 337.546875 141.75390625 C338.52269531 141.39167969 339.49851562 141.02945313 340.50390625 140.65625 C341.46683594 140.29660156 342.42976563 139.93695313 343.421875 139.56640625 C356.5220316 135.16432934 373.64708356 136.65533136 386.30859375 141.8125 C402.88981919 150.2675158 416.44090926 164.98847138 422.31640625 182.78125 C424.2166755 190.81805753 423.5457782 199.3958266 423.31640625 207.59375 C423.82429687 207.31660156 424.3321875 207.03945313 424.85546875 206.75390625 C425.54382813 206.39167969 426.2321875 206.02945313 426.94140625 205.65625 C427.61429688 205.29660156 428.2871875 204.93695313 428.98046875 204.56640625 C435.59684808 201.81142556 443.02810633 202.3406951 450.06640625 202.28125 C451.195625 202.25224609 452.32484375 202.22324219 453.48828125 202.19335938 C468.46153004 202.08071341 481.19181189 209.55640797 491.90991211 219.69384766 C504.44952746 232.17469377 509.72435191 245.39676524 509.81640625 262.96875 C509.82269043 263.87133545 509.82897461 264.7739209 509.83544922 265.70385742 C509.67623439 274.1352874 507.38232666 281.53313382 504.00390625 289.21875 C501.96098998 293.98555464 500.1045054 298.79049107 498.31640625 303.65625 C495.59178009 311.02575635 492.43959445 318.12107767 489.0703125 325.21875 C486.70316444 330.2922636 484.649374 335.36355563 482.81640625 340.65625 C481.04378415 345.75184394 478.99634751 350.46724242 476.5 355.2421875 C474.90142759 358.41822905 473.62165506 361.68503579 472.33203125 364.99609375 C470.41539908 369.8982491 468.35139758 374.73983929 466.31640625 379.59375 C465.68741847 381.10413272 465.05851817 382.61455187 464.4296875 384.125 C461.4371604 391.29307926 458.43508365 398.43886249 455.12890625 405.46875 C452.65216365 410.73684846 450.57364216 416.09441459 448.53125 421.54296875 C447.09419993 425.15176652 445.36574349 428.53826241 443.57421875 431.98046875 C441.6009079 436.08029782 440.07871316 440.33920647 438.52734375 444.61328125 C437.35768277 447.4921565 435.95946549 449.96396225 434.31640625 452.59375 C432.29659718 457.00060614 430.5929397 461.49718598 428.87890625 466.03125 C427.21796035 470.38750333 425.42725784 474.53698228 423.26953125 478.6640625 C422.21946751 480.79001123 421.35943236 482.94493252 420.50390625 485.15625 C418.53379527 490.20222595 416.27197104 495.08403188 413.95385742 499.97680664 C410.08078284 508.1569787 406.49692952 516.45910815 402.94140625 524.78125 C402.55001465 525.69527588 402.15862305 526.60930176 401.75537109 527.55102539 C399.99976492 531.65164555 398.24722109 535.75351357 396.50390625 539.859375 C395.98828125 541.07109375 395.47265625 542.2828125 394.94140625 543.53125 C394.50054688 544.57152344 394.0596875 545.61179687 393.60546875 546.68359375 C392.26723486 549.70475814 390.80374929 552.64364811 389.31640625 555.59375 C388.62742234 557.20137911 387.93949224 558.80948755 387.26171875 560.421875 C386.01989522 563.27499021 384.69585356 566.08705626 383.37890625 568.90625 C381.16981489 573.66261462 379.14962799 578.44734214 377.24609375 583.33203125 C376.36225993 585.4821984 375.38031622 587.52778529 374.31640625 589.59375 C372.90494051 592.34067947 371.68623589 595.09059136 370.56640625 597.96875 C368.61828798 602.94727448 366.48446328 607.83314218 364.31640625 612.71875 C363.98415039 613.47075684 363.65189453 614.22276367 363.30957031 614.99755859 C361.68070375 618.65329894 359.99943625 622.26507825 358.19140625 625.8359375 C356.73836754 628.70724983 355.45633835 631.5810723 354.31640625 634.59375 C352.81810343 638.43058037 351.12777321 642.08093521 349.24609375 645.7421875 C348.118554 647.98779187 347.13759885 650.28794625 346.16796875 652.60546875 C344.67896115 656.08209659 343.0801408 659.50936771 341.5 662.9453125 C340.37070395 665.47225218 339.33995731 668.02258973 338.31640625 670.59375 C337.29880176 672.90544021 336.25946682 675.2064538 335.21875 677.5078125 C334.22693789 679.71812419 334.22693789 679.71812419 333.31640625 682.59375 C332.65640625 682.59375 331.99640625 682.59375 331.31640625 682.59375 C331.08953125 683.8725 330.86265625 685.15125 330.62890625 686.46875 C329.62055054 691.00282497 327.89606078 694.71196211 325.734375 698.80078125 C324.12650091 701.96780598 322.75181929 705.19321732 321.37890625 708.46875 C319.46079923 713.0150088 317.43412986 717.44868962 315.19140625 721.84375 C312.5700595 726.99087357 310.38031428 732.20370919 308.31640625 737.59375 C307.56907288 739.46981445 306.81912811 741.34484104 306.06640625 743.21875 C305.56367187 744.47558594 305.56367187 744.47558594 305.05078125 745.7578125 C304.8084375 746.36367188 304.56609375 746.96953125 304.31640625 747.59375 C303.65640625 747.59375 302.99640625 747.59375 302.31640625 747.59375 C302.23390625 748.233125 302.15140625 748.8725 302.06640625 749.53125 C301.23413345 752.92969726 299.94955442 755.83068974 298.48046875 758.99609375 C297.65358198 760.84132764 296.88297462 762.71223631 296.15234375 764.59765625 C295.75273438 765.62761719 295.353125 766.65757812 294.94140625 767.71875 C294.58304688 768.67007813 294.2246875 769.62140625 293.85546875 770.6015625 C291.82704269 774.54515225 289.84980319 777.83430032 286.31640625 780.59375 C282.75127252 781.61352571 279.30881062 781.5441847 275.61952209 781.48936462 C274.54127668 781.50099012 273.46303127 781.51261562 272.35211176 781.52459341 C268.73806914 781.55486319 265.12605315 781.53507918 261.51196289 781.51538086 C258.92146933 781.52650283 256.33098705 781.54058838 253.74052429 781.55741882 C247.43419818 781.59238575 241.12843803 781.5893953 234.82205874 781.57255536 C229.69587475 781.55947498 224.5698529 781.55970168 219.44366264 781.56939888 C218.71380128 781.57076023 217.98393991 781.57212159 217.23196153 781.5735242 C215.74920281 781.57633461 214.26644413 781.57916981 212.7836855 781.58202953 C198.8818992 781.60715857 184.98042922 781.58861221 171.07867645 781.55564285 C159.1548665 781.52846054 147.23162482 781.54090755 135.30786133 781.58178711 C121.45705189 781.62926636 107.60659283 781.65048256 93.75570387 781.63115031 C92.27812451 781.62917214 90.80054509 781.62723441 89.32296562 781.6253376 C88.59599542 781.62439838 87.86902522 781.62345917 87.12002562 781.62249149 C82.00153215 781.61774004 76.88329204 781.63190344 71.76484871 781.65354729 C64.87228074 781.6822105 57.98087548 781.66863824 51.08838081 781.62666512 C48.55799954 781.61768053 46.02752777 781.62234322 43.49720383 781.64160156 C40.04357922 781.66569066 36.59369779 781.64054666 33.14027405 781.60289001 C32.13754631 781.62141791 31.13481856 781.6399458 30.10170513 781.65903515 C26.06117067 781.57106242 23.38670296 781.46077596 20.17998779 778.86308014 C18.39031355 776.84970046 16.83100785 774.81914781 15.31640625 772.59375 C14.68570657 771.73555417 14.68570657 771.73555417 14.04226547 770.86002105 C12.90930733 769.29732045 11.83052296 767.69578739 10.75390625 766.09375 C8.34254898 762.53974282 5.92639507 759.00625616 3.31640625 755.59375 C0.49182761 751.87881505 -2.16021268 748.05581453 -4.80688477 744.21264648 C-12.42521174 733.15227614 -20.12220128 722.14370855 -27.93359375 711.21875 C-28.32474365 710.67105957 -28.71589355 710.12336914 -29.11889648 709.55908203 C-31.21495105 706.62922576 -33.3256302 703.71074734 -35.44921875 700.80078125 C-36.13516113 699.85501221 -36.13516113 699.85501221 -36.83496094 698.89013672 C-37.70616822 697.68930902 -38.58153874 696.4914858 -39.46191406 695.29736328 C-41.71785212 692.17994929 -43.43474553 689.23848638 -44.68359375 685.59375 C-45.34359375 685.59375 -46.00359375 685.59375 -46.68359375 685.59375 C-48.05859375 683.6796875 -48.05859375 683.6796875 -49.68359375 680.96875 C-52.47677478 676.45223989 -55.39363055 672.08680764 -58.49609375 667.78125 C-59.129104 666.90146484 -59.129104 666.90146484 -59.77490234 666.00390625 C-61.07596592 664.19918933 -62.37969212 662.39641713 -63.68359375 660.59375 C-65.3953964 658.22122895 -67.10374003 655.84626933 -68.80859375 653.46875 C-69.22165771 652.89286133 -69.63472168 652.31697266 -70.06030273 651.72363281 C-73.45724078 646.96294087 -76.70058315 642.11449604 -79.89453125 637.21484375 C-81.7062827 634.5605092 -83.67285108 632.09944471 -85.68359375 629.59375 C-87.07484283 627.62597163 -88.44873892 625.64585311 -89.80859375 623.65625 C-93.05157736 618.93277387 -96.34247001 614.24829446 -99.68359375 609.59375 C-103.07508138 604.85536868 -106.46124771 600.11345074 -109.80859375 595.34375 C-110.92621094 593.75820312 -110.92621094 593.75820312 -112.06640625 592.140625 C-113.68359375 589.59375 -113.68359375 589.59375 -113.68359375 587.59375 C-114.34359375 587.59375 -115.00359375 587.59375 -115.68359375 587.59375 C-117.04768598 585.83511092 -118.3219302 584.00671542 -119.55859375 582.15625 C-120.36489748 580.96287358 -121.17224394 579.7702012 -121.98046875 578.578125 C-122.63112305 577.61422852 -122.63112305 577.61422852 -123.29492188 576.63085938 C-125.75377697 573.0238469 -128.28479091 569.4679633 -130.80859375 565.90625 C-131.83333526 564.45312636 -132.85807489 563.00000139 -133.8828125 561.546875 C-135.5171153 559.23357328 -137.16373314 556.93257445 -138.828125 554.640625 C-148.13379662 541.74649178 -153.54688409 527.75421048 -151.68359375 511.59375 C-149.0055454 496.95514718 -142.98070956 486.46082001 -131.17578125 477.15234375 C-128.4287073 475.43434609 -125.78539356 474.49731777 -122.68359375 473.59375 C-122.68359375 472.93375 -122.68359375 472.27375 -122.68359375 471.59375 C-122.1417041 471.28783936 -121.59981445 470.98192871 -121.04150391 470.66674805 C-108.44011587 463.54082099 -95.98593375 456.22450546 -83.68359375 448.59375 C-83.82913788 447.17157592 -83.97828162 445.74976997 -84.12890625 444.328125 C-84.21156738 443.53631836 -84.29422852 442.74451172 -84.37939453 441.92871094 C-84.94757588 437.5674859 -86.19439057 433.34603711 -87.375 429.1171875 C-100.34091739 378.74697438 -93.46560411 322.15475364 -73.68359375 274.59375 C-73.02359375 274.59375 -72.36359375 274.59375 -71.68359375 274.59375 C-71.54244141 273.33691406 -71.54244141 273.33691406 -71.3984375 272.0546875 C-70.58066408 268.09541292 -69.07980224 264.78382866 -67.24609375 261.21875 C-66.89119873 260.52249512 -66.53630371 259.82624023 -66.1706543 259.10888672 C-56.46140698 240.41348823 -44.19360232 222.85249567 -29.68359375 207.59375 C-28.50960299 206.24592799 -27.34238793 204.89215945 -26.18359375 203.53125 C-19.53655154 195.9213185 -12.34666662 189.0932125 -4.4453125 182.80078125 C-2.65350698 181.36885746 -0.88343962 179.90913272 0.859375 178.41796875 C12.80064658 168.24711262 27.26922715 158.32285064 41.73828125 152.12890625 C45.2717886 150.61289272 48.56041419 148.85912268 51.94140625 147.03125 C73.78624259 135.88081466 97.28311629 130.41649718 121.31640625 126.59375 C122.21858887 126.44969727 123.12077148 126.30564453 124.05029297 126.15722656 C132.16299407 124.90605523 140.102777 124.36559363 148.31640625 124.59375 C148.97640625 119.97375 149.63640625 115.35375 150.31640625 110.59375 C148.43953125 110.8825 146.56265625 111.17125 144.62890625 111.46875 C142.92776048 111.73046473 141.22640394 111.990934 139.52368164 112.2421875 C137.91616383 112.49822396 136.31414307 112.78951556 134.71655273 113.1015625 C125.02083773 114.86341872 115.45250132 114.89825612 105.62329102 114.85449219 C102.75580772 114.84375712 99.88894891 114.85444866 97.02148438 114.8671875 C87.61841398 114.87503282 78.52307721 114.74593487 69.31640625 112.59375 C68.55320068 112.41585937 67.78999512 112.23796875 67.00366211 112.0546875 C65.01551303 111.56122196 63.04014746 111.01701145 61.06640625 110.46875 C60.40511719 110.28699219 59.74382812 110.10523438 59.0625 109.91796875 C57.47898165 109.48192747 55.89744786 109.03868794 54.31640625 108.59375 C54.31640625 107.93375 54.31640625 107.27375 54.31640625 106.59375 C53.47078125 106.490625 52.62515625 106.3875 51.75390625 106.28125 C47.90197924 105.5108646 44.87565594 104.23100486 41.31640625 102.59375 C41.31640625 101.93375 41.31640625 101.27375 41.31640625 100.59375 C40.62289062 100.52414063 39.929375 100.45453125 39.21484375 100.3828125 C35.48127677 99.36639669 32.90807141 97.34720455 29.94140625 94.96875 C29.36632324 94.51508057 28.79124023 94.06141113 28.19873047 93.59399414 C20.93172289 87.78758314 14.51953343 81.35890333 9.31640625 73.59375 C9.31640625 72.93375 9.31640625 72.27375 9.31640625 71.59375 C8.65640625 71.59375 7.99640625 71.59375 7.31640625 71.59375 C3.31640625 64.96875 3.31640625 64.96875 3.31640625 61.59375 C2.65640625 61.59375 1.99640625 61.59375 1.31640625 61.59375 C0.98640625 59.61375 0.65640625 57.63375 0.31640625 55.59375 C-0.34359375 55.59375 -1.00359375 55.59375 -1.68359375 55.59375 C-3.73577556 50.27912531 -5.72071633 44.94194015 -7.68359375 39.59375 C-8.00408691 38.73265625 -8.32458008 37.8715625 -8.65478516 36.984375 C-17.26629849 13.64499859 -17.26629849 13.64499859 -14.68359375 5.59375 C-9.94969172 0.64153025 -6.71249962 -0.13825595 0 0 Z " fill="#1B1A1A" transform="translate(333.68359375,129.40625)"/>
<path d="M0 0 C0 10.23 0 20.46 0 31 C-8 30 -8 30 -11.0625 28.4375 C-14.63529963 26.68910869 -17.06702181 26.62896432 -21 27 C-24.11043343 28.62461133 -24.11043343 28.62461133 -24.65234375 31.0234375 C-24.74644531 31.79945313 -24.84054687 32.57546875 -24.9375 33.375 C-25.04964844 34.14585937 -25.16179687 34.91671875 -25.27734375 35.7109375 C-24.87880226 39.0003081 -23.56314596 39.96642966 -21 42 C-18.26064704 43.47166971 -18.26064704 43.47166971 -15.25 44.625 C-14.26515625 45.02976562 -13.2803125 45.43453125 -12.265625 45.8515625 C-4.07513921 48.73194865 2.8514713 49.25948669 11.5 49.125 C13.16289062 49.11146484 13.16289062 49.11146484 14.859375 49.09765625 C17.57314592 49.07426167 20.28645545 49.04148175 23 49 C22.73082764 49.53254395 22.46165527 50.06508789 22.18432617 50.61376953 C21.65029175 51.6750708 21.65029175 51.6750708 21.10546875 52.7578125 C20.75379639 53.45535645 20.40212402 54.15290039 20.03979492 54.87158203 C18.57558768 57.86875478 17.29157754 60.92481539 16 64 C15.67 64.66 15.34 65.32 15 66 C14.34 66 13.68 66 13 66 C12.81824219 66.556875 12.63648438 67.11375 12.44921875 67.6875 C11.16285167 71.59277853 9.84339676 75.47152128 8.375 79.3125 C2.57452037 94.86833174 6.38019265 111.53782618 13.0625 126.1875 C19.94498348 139.18774657 31.06450615 149.90818494 45 155 C45.9075 155.37125 46.815 155.7425 47.75 156.125 C55.18355372 158.12634139 62.90598473 158.10461714 70.5625 158.1875 C71.24610596 158.20055176 71.92971191 158.21360352 72.6340332 158.22705078 C78.26276855 158.23640195 83.5225648 157.24824702 89 156 C89.0093457 156.58789307 89.01869141 157.17578613 89.02832031 157.78149414 C89.47125731 180.04776354 93.00465866 197.88003319 109.10546875 214.30078125 C121.61354777 225.96486033 136.99923687 230.62941186 153.76171875 230.23828125 C168.92876253 229.55514171 185.33136589 221.82077149 196 211 C199.33064526 206.91566463 202.63487502 202.73024996 205 198 C205.66 198 206.32 198 207 198 C207.268125 198.88300781 207.53625 199.76601563 207.8125 200.67578125 C210.63920532 209.33256629 214.17323754 215.88484983 220 223 C220.72316406 223.98419922 220.72316406 223.98419922 221.4609375 224.98828125 C227.77639426 233.22027836 237.43093736 237.63468134 247 241 C247.99 241.391875 248.98 241.78375 250 242.1875 C254.28184609 243.34716665 258.58596101 243.66851091 263 244 C260.33903039 271.36429947 253.42152045 298.88485246 240.06542969 323.06640625 C238.90771649 325.16748061 237.78584694 327.2857926 236.6640625 329.40625 C229.09917805 343.53821983 220.33153128 356.73013043 210 369 C209.56606934 369.52271484 209.13213867 370.04542969 208.68505859 370.58398438 C198.44070618 382.91235084 187.70344206 394.16334317 175 404 C173.58267578 405.10794922 173.58267578 405.10794922 172.13671875 406.23828125 C157.62656854 417.36593287 141.93619013 426.58645348 125.625 434.8125 C124.51946777 435.37227539 124.51946777 435.37227539 123.39160156 435.94335938 C118.68846718 438.2811375 113.95161735 440.25460001 109 442 C107.96480225 442.36895386 107.96480225 442.36895386 106.90869141 442.74536133 C104.06064832 443.75560934 101.2079635 444.75240621 98.35546875 445.75 C94.82914331 446.98775957 91.32097648 448.25391563 87.83203125 449.59375 C79.32838304 452.79590829 70.31517064 454.18990688 61.375 455.625 C60.23067505 455.8096582 60.23067505 455.8096582 59.06323242 455.99804688 C20.10412592 462.01284442 -26.18193787 460.49207033 -62.8112793 444.92944336 C-64.89817816 444.04323879 -66.99876603 443.26029396 -69.1328125 442.49609375 C-73.20813058 440.98190758 -77.02000625 439.06255868 -80.875 437.0625 C-85.29360146 434.80140483 -89.64729168 432.65429666 -94.3125 430.9375 C-100.04518285 428.75179483 -104.91074863 425.37851849 -110 422 C-111.79094872 420.89466921 -113.58261765 419.79050452 -115.375 418.6875 C-126.67992446 411.47739903 -136.85796538 402.73111328 -147 394 C-145.50959176 389.56878623 -142.13331598 387.9288891 -138.3125 385.6875 C-136.87247254 384.81190796 -135.4337518 383.93416452 -133.99609375 383.0546875 C-133.2057373 382.57354492 -132.41538086 382.09240234 -131.60107422 381.59667969 C-126.65476344 378.56036727 -121.76007767 375.44611092 -116.875 372.3125 C-115.89184814 371.69528076 -114.90869629 371.07806152 -113.89575195 370.44213867 C-108.33126843 366.86015482 -103.91742861 363.35069652 -100 358 C-99.48050781 357.32453125 -98.96101563 356.6490625 -98.42578125 355.953125 C-92.46005905 346.82661665 -91.46207732 336.937503 -91.5625 326.25 C-91.57494751 324.53538574 -91.57494751 324.53538574 -91.58764648 322.78613281 C-91.93432298 305.390622 -97.28759356 288.87528382 -109.625 276.18359375 C-121.68611579 265.09450867 -133.94625301 261.89675293 -150.0625 262.48828125 C-156.49297936 262.96742921 -160.82937971 265.26520203 -166 269 C-167.82336465 270.07951781 -169.65742901 271.14110166 -171.5 272.1875 C-172.49257813 272.77144531 -173.48515625 273.35539062 -174.5078125 273.95703125 C-177.15898194 275.51437798 -179.8232214 277.04757908 -182.4921875 278.57421875 C-190.73936979 283.30070334 -198.91045649 288.06839523 -206.81201172 293.35888672 C-210.79742609 296 -210.79742609 296 -213 296 C-219.3564584 274.409348 -222.49010308 252.03410622 -222.4375 229.5625 C-222.43756042 228.49858536 -222.43756042 228.49858536 -222.43762207 227.41317749 C-222.4114043 219.50794569 -221.98141876 211.69678405 -221.09765625 203.83984375 C-221.02091171 203.14323135 -220.94416718 202.44661896 -220.86509705 201.72889709 C-220.35576249 197.60247441 -219.40557945 193.90537807 -218 190 C-217.66782636 188.23631613 -217.37700762 186.46441089 -217.125 184.6875 C-215.27355447 173.0725722 -212.76450351 161.77968918 -208 151 C-207.41351089 149.57942377 -206.83052489 148.15739894 -206.25 146.734375 C-189.03969098 104.74070493 -162.41052681 68.35850305 -125 42 C-123.77948056 41.11913679 -122.55941302 40.23764701 -121.33984375 39.35546875 C-116.3525089 35.7875683 -111.39272974 32.45594952 -105.8125 29.88671875 C-103.82603641 28.91489281 -102.03674616 27.77420363 -100.1875 26.5625 C-92.27849009 21.54479158 -83.50554691 18.3433096 -74.74609375 15.14282227 C-71.6291634 14.00247237 -68.58789858 12.81865673 -65.546875 11.48046875 C-61.58548825 9.82698243 -57.63181887 8.5817582 -53.5 7.4375 C-52.71971436 7.22134033 -51.93942871 7.00518066 -51.13549805 6.7824707 C-41.53312014 4.21982209 -31.95974771 2.86079133 -22 3 C-22 2.34 -22 1.68 -22 1 C-14.5846952 0.08128967 -7.54155613 0 0 0 Z " fill="#ED862B" transform="translate(480,272)"/>
<path d="M0 0 C1 3 1 3 -0.625 6.5 C-0.99882813 7.20382812 -1.37265625 7.90765625 -1.7578125 8.6328125 C-5.28342117 15.35142524 -8.20293924 22.36577742 -10.9765625 29.421875 C-12.0761313 32.19178115 -13.22148562 34.93963773 -14.375 37.6875 C-16.05847912 41.7019502 -17.69054652 45.732151 -19.28613281 49.78198242 C-21.35565513 55.02802626 -23.46862832 60.19176717 -26.07421875 65.19921875 C-28.88017305 70.65721425 -31.1267775 76.31062634 -33.25 82.0625 C-35.5111314 88.03834727 -38.2231605 93.68370243 -41.14550781 99.35571289 C-44.05592012 105.00885055 -46.54138288 110.77085129 -48.875 116.6875 C-49.58240924 118.45870269 -50.29079335 120.22951624 -51 122 C-51.57234375 123.42892578 -51.57234375 123.42892578 -52.15625 124.88671875 C-54.71783822 131.16753602 -57.5731038 137.2095503 -60.65625 143.25 C-61.78714591 145.56439163 -62.75513257 147.82949934 -63.625 150.25 C-64.8876422 153.69356963 -66.36088102 156.81815471 -68.03125 160.0703125 C-69.4956432 162.98728928 -70.73372597 165.99259918 -72 169 C-72.60285797 170.33392556 -73.20713869 171.66720864 -73.8125 173 C-75.66567644 177.13947075 -77.33810269 181.34367795 -79 185.5625 C-80.83090936 190.2033506 -82.76364299 194.71758684 -85.08203125 199.13671875 C-86.12723416 201.25825828 -86.96688706 203.41641599 -87.8125 205.625 C-89.95863072 211.13510547 -92.62007073 216.35091735 -95.31640625 221.60546875 C-96.6636966 224.32193119 -97.90313576 227.04349545 -99.07788086 229.8371582 C-101.83563217 236.30549785 -104.75500282 242.70627444 -107.6171875 249.12890625 C-110.68245978 255.99542342 -110.68245978 255.99542342 -113.6640625 262.8984375 C-114.88193431 265.72589429 -116.17151295 268.50886188 -117.49780273 271.28686523 C-120.03538906 276.60428451 -122.40380821 281.901722 -124.4375 287.4375 C-126.58184732 293.2052989 -129.23828325 298.57819613 -132.04956055 304.03857422 C-134.73226014 309.30718481 -136.87429259 314.67928286 -138.9140625 320.23046875 C-140.29244037 323.74582814 -142.05928958 326.76548264 -144 330 C-145.03101947 332.31979381 -146.02936517 334.65429915 -147 337 C-147.60890868 338.38734403 -148.2225155 339.77263189 -148.83984375 341.15625 C-149.19224121 341.94692871 -149.54463867 342.73760742 -149.90771484 343.55224609 C-150.26816895 344.36000488 -150.62862305 345.16776367 -151 346 C-152.01660655 348.28240509 -153.03279061 350.56499779 -154.04882812 352.84765625 C-154.72815774 354.37385727 -155.40784899 355.89989736 -156.08789062 357.42578125 C-159.41953501 364.91392589 -162.60961305 372.45165235 -165.71875 380.03515625 C-167.03706615 383.08577199 -168.50349787 386.03349845 -170 389 C-201.24460846 389.41112117 -232.48849821 389.72942236 -263.73517148 389.91917593 C-267.42867671 389.94168715 -271.12217659 389.9649851 -274.81567383 389.98876953 C-275.91858155 389.99585191 -275.91858155 389.99585191 -277.04377023 390.00307737 C-288.93099956 390.0812857 -300.81665319 390.22313744 -312.70294943 390.38875033 C-324.91043772 390.55741271 -337.11710413 390.65712616 -349.32570964 390.69359291 C-356.85296827 390.71822755 -364.37577354 390.79583745 -371.90165982 390.9424964 C-377.68459637 391.04941078 -383.46471648 391.06011436 -389.2484436 391.03593826 C-391.61210778 391.04087228 -393.97594738 391.07644873 -396.33860207 391.14569855 C-413.71049472 391.62970152 -413.71049472 391.62970152 -419.21808648 387.22681379 C-423.17690745 382.96454428 -426.11289849 378.22744438 -428.84544623 373.1137321 C-430.35334522 370.35310321 -432.1458207 367.84972984 -434.015625 365.32421875 C-435.09524361 363.77968878 -436.17342135 362.23415044 -437.25 360.6875 C-437.83442871 359.85049561 -438.41885742 359.01349121 -439.02099609 358.15112305 C-442.23403614 353.54629805 -445.433694 348.93240507 -448.625 344.3125 C-454.02334112 336.49937412 -459.51501046 328.75239298 -465 321 C-471.26349838 312.14727558 -477.50729001 303.28403394 -483.66796875 294.359375 C-487.88471136 288.26913383 -492.1778682 282.23218802 -496.45605469 276.18505859 C-497.96571438 274.04852251 -499.47177827 271.90950328 -500.9765625 269.76953125 C-506.182721 262.37031175 -511.43352364 255.00793218 -516.75 247.6875 C-520.92752451 241.93221889 -524.95576228 236.11359737 -528.859375 230.16796875 C-532.10859189 225.35936492 -535.53062244 220.67912593 -538.94140625 215.984375 C-543.17182381 210.15904139 -547.33680228 204.29115584 -551.47509766 198.40014648 C-554.59951855 193.96096352 -557.76526853 189.55456762 -560.9597168 185.16552734 C-565.60075127 178.78197868 -570.21800763 172.38013547 -574.6875 165.875 C-575.30262451 165.00657471 -575.30262451 165.00657471 -575.93017578 164.12060547 C-581.32760976 156.14309208 -581.858779 147.40308653 -581 138 C-579.11990666 128.71211375 -575.29772819 121.85893088 -567.56567383 116.22680664 C-564.81011548 114.47437825 -562.01699245 112.81776386 -559.1875 111.1875 C-557.11572115 109.96121498 -555.04410815 108.73464973 -552.97265625 107.5078125 C-551.95445801 106.91129883 -550.93625977 106.31478516 -549.88720703 105.70019531 C-545.93428127 103.37242811 -542.02938679 100.97042403 -538.125 98.5625 C-524.86973835 90.44196866 -511.51292944 82.48752505 -498.16796875 74.515625 C-497.26159668 73.97349365 -496.35522461 73.4313623 -495.42138672 72.87280273 C-493.73760798 71.8657814 -492.05309045 70.85999383 -490.36767578 69.85571289 C-487.07984794 67.88870544 -483.82412318 65.90979958 -480.65625 63.75390625 C-478.14570631 62.09620902 -475.68019057 61.02685504 -472.90234375 59.90234375 C-470.68933476 58.85264134 -468.76935354 57.57333086 -466.75 56.1875 C-465.16881632 55.12180357 -463.58537216 54.05945543 -462 53 C-461.154375 52.43152344 -460.30875 51.86304688 -459.4375 51.27734375 C-451.62517679 46.47412759 -444.60974071 45.69758804 -435.62109375 47.46875 C-433.6875 48 -433.6875 48 -431 49 C-431 49.66 -431 50.32 -431 51 C-429.89011719 51.37705078 -429.89011719 51.37705078 -428.7578125 51.76171875 C-421.89225488 54.84441247 -416.92491512 61.54863378 -414 68.3125 C-413.67 69.199375 -413.34 70.08625 -413 71 C-412.75121094 71.60972656 -412.50242187 72.21945312 -412.24609375 72.84765625 C-411.97925781 73.51667969 -411.71242188 74.18570313 -411.4375 74.875 C-411.18871094 75.49117187 -410.93992187 76.10734375 -410.68359375 76.7421875 C-407.03902082 88.77969125 -407.66042128 103.08467501 -413.1484375 114.359375 C-417.04822467 121.07692747 -422.40307112 124.19837997 -429 128 C-431.51237055 129.54285499 -434.00503557 131.11669892 -436.5 132.6875 C-437.8747675 133.54594538 -439.24977414 134.40400787 -440.625 135.26171875 C-446.06552805 138.66204878 -451.48727732 142.09203396 -456.9074707 145.5246582 C-460.75431433 147.95880805 -464.60704868 150.38176111 -468.48046875 152.7734375 C-476.86433418 157.92196373 -476.86433418 157.92196373 -484.875 163.625 C-488 166 -488 166 -490 166 C-489.55567586 171.39498605 -489.55567586 171.39498605 -487.9375 176.5 C-485.4925049 178.39289943 -483.45854599 178.72655187 -480.390625 178.6015625 C-476.2325794 177.55525691 -472.98125874 175.07960439 -469.515625 172.62890625 C-467.15160694 171.09816785 -465.75602268 170.33970591 -463 170 C-460.82598054 171.87436559 -458.98273968 173.70219755 -457.0625 175.8125 C-434.60552649 199.32025924 -401.19516232 218.6482154 -370.25390625 228 C-367 229 -367 229 -363.328125 230.4375 C-358.07146768 232.43597127 -352.65237842 233.70478276 -347.1875 235 C-346.08744629 235.26200195 -344.98739258 235.52400391 -343.85400391 235.79394531 C-335.13856501 237.82455533 -326.41248212 239.47424548 -317.54174805 240.65136719 C-315.61800638 240.91523263 -313.69810849 241.20732329 -311.78051758 241.51269531 C-302.27117862 242.94753828 -293.00472212 243.31039282 -283.40209961 243.26074219 C-280.93643711 243.24999537 -278.47150039 243.26072171 -276.00585938 243.2734375 C-266.49419096 243.28230028 -257.39315741 242.64064325 -248 241 C-246.11331249 240.70162533 -244.22659528 240.40343835 -242.33984375 240.10546875 C-219.47221696 236.28065662 -196.48624803 231.60639475 -175.70874023 220.8815918 C-173.65143232 219.82016318 -171.55744885 218.86673754 -169.4375 217.9375 C-168.68984375 217.6075 -167.9421875 217.2775 -167.171875 216.9375 C-165.79174724 216.3417614 -164.40674707 215.75709329 -163.015625 215.1875 C-160.36618983 214.10055224 -158.0889074 213.06858571 -155.8125 211.3125 C-154 210 -154 210 -150 210 C-150 209.34 -150 208.68 -150 208 C-147.9375 206.66015625 -147.9375 206.66015625 -145 205.0625 C-129.8084093 196.43539831 -116.22262439 185.88203789 -103.3359375 174.11328125 C-101.2382901 172.21557683 -99.09896218 170.3865007 -96.9375 168.5625 C-92.19665047 164.41899751 -88.1195033 159.75017644 -84 155 C-83.16726563 154.06671875 -82.33453125 153.1334375 -81.4765625 152.171875 C-68.13314154 137.03727444 -57.60184625 120.30808065 -48.30029297 102.45288086 C-47.02776872 100.05238308 -45.6953845 97.69483895 -44.34765625 95.3359375 C-42.16978065 91.43671987 -40.49204968 87.51581099 -39 83.3125 C-38.75145264 82.6311499 -38.50290527 81.9497998 -38.24682617 81.24780273 C-37.49036238 79.16782856 -36.74458798 77.08425028 -36 75 C-35.53822231 73.72379111 -35.07599884 72.44774341 -34.61328125 71.171875 C-33.39314841 67.78628118 -32.18272004 64.39884663 -31 61 C-30.7620874 60.34370605 -30.5241748 59.68741211 -30.27905273 59.01123047 C-28.08769391 52.77843693 -26.70435956 46.47754696 -25.4375 40 C-25.22134033 38.91017822 -25.00518066 37.82035645 -24.7824707 36.69750977 C-23.0684968 27.8355671 -21.82806758 18.98515117 -21 10 C-19.48019531 9.41992188 -19.48019531 9.41992188 -17.9296875 8.828125 C-16.57797833 8.30246032 -15.226424 7.77639737 -13.875 7.25 C-13.20984375 6.99734375 -12.5446875 6.7446875 -11.859375 6.484375 C-7.48350115 4.76834604 -3.82259553 2.73893138 0 0 Z " fill="#FCFCFC" transform="translate(781,504)"/>
<path d="M0 0 C0.87889893 0.00757324 1.75779785 0.01514648 2.66333008 0.02294922 C15.96835452 0.35842145 26.06019299 5.26768624 35.5625 14.4375 C43.27672287 22.57944215 47.32155564 31.98932772 47.75 43.3125 C47.12682588 57.29726037 41.91494604 67.55708235 34.66503906 79.13476562 C32.2091105 83.13136986 29.92896943 87.22707888 27.625 91.3125 C24.1588405 97.42417423 20.63574107 103.49799795 17.03515625 109.53125 C16.67486328 110.13558868 16.31457031 110.73992737 15.94335938 111.36257935 C14.16614141 114.34165586 12.38359137 117.31735963 10.59326172 120.28857422 C7.43715621 125.5654201 4.44590356 130.68671861 2.25 136.4375 C1.59 136.4375 0.93 136.4375 0.25 136.4375 C-0.13285156 137.47583984 -0.13285156 137.47583984 -0.5234375 138.53515625 C-1.91034106 141.81690576 -3.58654902 144.79330657 -5.375 147.875 C-6.09652085 149.12229943 -6.81787021 150.36969807 -7.5390625 151.6171875 C-7.90676758 152.25108398 -8.27447266 152.88498047 -8.65332031 153.53808594 C-9.70297737 155.35605832 -10.74076269 157.18015004 -11.7734375 159.0078125 C-31.26738698 193.49341157 -31.26738698 193.49341157 -48.75 199.4375 C-59.85806615 202.25476315 -72.49825435 201.49563001 -82.75 196.4375 C-82.75 195.7775 -82.75 195.1175 -82.75 194.4375 C-83.45125 194.375625 -84.1525 194.31375 -84.875 194.25 C-92.55206553 192.08039452 -97.28908857 184.57969527 -101.16796875 178.05078125 C-106.759124 167.60630648 -108.4909369 156.01242522 -106.12109375 144.33984375 C-102.93805581 134.06674482 -97.08485245 125.07032657 -91.59375 115.90234375 C-87.10987924 108.4128641 -82.87011204 100.7937299 -78.63305664 93.1628418 C-77.01271516 90.2502094 -75.38322042 87.34292837 -73.75 84.4375 C-73.12464355 83.31537109 -72.49928711 82.19324219 -71.85498047 81.03710938 C-70.91936279 79.38678711 -70.91936279 79.38678711 -69.96484375 77.703125 C-69.39757568 76.69540039 -68.83030762 75.68767578 -68.24584961 74.64941406 C-67.50540405 73.5545166 -67.50540405 73.5545166 -66.75 72.4375 C-66.09 72.4375 -65.43 72.4375 -64.75 72.4375 C-64.6456665 71.72634033 -64.54133301 71.01518066 -64.43383789 70.2824707 C-63.66651075 67.0901597 -62.44473463 64.76135921 -60.80859375 61.91796875 C-60.22529297 60.89638672 -59.64199219 59.87480469 -59.04101562 58.82226562 C-58.42935547 57.76716797 -57.81769531 56.71207031 -57.1875 55.625 C-56.57197266 54.55056641 -55.95644531 53.47613281 -55.32226562 52.36914062 C-53.80435656 49.72162482 -52.28010236 47.07798144 -50.75 44.4375 C-50.09 44.4375 -49.43 44.4375 -48.75 44.4375 C-48.63841553 43.71457764 -48.52683105 42.99165527 -48.41186523 42.24682617 C-47.23912907 37.2690781 -44.39790697 33.11992752 -41.8125 28.75 C-41.23000488 27.76354492 -40.64750977 26.77708984 -40.04736328 25.76074219 C-35.06814447 17.55054546 -29.82683126 10.82205417 -21.75 5.4375 C-20.43 5.4375 -19.11 5.4375 -17.75 5.4375 C-17.75 4.7775 -17.75 4.1175 -17.75 3.4375 C-11.63994244 0.78370772 -6.63823917 -0.08026275 0 0 Z " fill="#FCFCFC" transform="translate(692.75,284.5625)"/>
<path d="M0 0 C0.87325928 0.01353516 1.74651855 0.02707031 2.64624023 0.04101562 C15.14487628 0.43761472 24.9044856 4.05165498 34.25 12.5 C44.00294251 22.90677106 47.93249753 34.20611275 47.5546875 48.4375 C46.99602969 58.33636236 42.63705068 65.92259978 37.35546875 74.09765625 C33.83639139 79.63322857 31.0835786 85.5937596 28.25 91.5 C27.59 91.5 26.93 91.5 26.25 91.5 C25.98155273 92.21051514 25.71310547 92.92103027 25.43652344 93.65307617 C24.21638505 96.58065513 22.80532311 99.27843329 21.265625 102.05078125 C20.66741943 103.12932373 20.06921387 104.20786621 19.45288086 105.3190918 C18.80219691 106.48371563 18.15122927 107.64818101 17.5 108.8125 C17.16775421 109.40858063 16.83550842 110.00466125 16.49319458 110.61880493 C10.15168107 121.99347002 3.6234706 133.25404812 -2.98095703 144.47802734 C-4.84413553 147.66080728 -6.68766867 150.8543635 -8.52734375 154.05078125 C-9.1505249 155.13012939 -9.77370605 156.20947754 -10.41577148 157.3215332 C-11.6001181 159.37384368 -12.78088217 161.42822769 -13.95727539 163.48510742 C-22.10822098 177.56777203 -31.47935172 189.7361322 -47.75 194.5 C-60.49032733 196.5920281 -72.83810568 194.94855371 -83.4375 187.375 C-92.3188959 179.92352473 -100.65028961 169.2310414 -101.99047852 157.37207031 C-102.76143926 144.59614946 -101.73844063 135.45927825 -94.99462891 124.52197266 C-93.70532299 122.42741958 -92.47876045 120.30524734 -91.26171875 118.16796875 C-89.46836738 115.02665371 -87.6527176 111.89993776 -85.8203125 108.78125 C-81.7022935 101.74032979 -77.74956049 94.60665009 -73.78466797 87.47875977 C-70.97300717 82.43358643 -68.12732278 77.4145201 -65.203125 72.43359375 C-62.98681005 68.65461081 -60.83302698 64.85401458 -58.75 61 C-54.99236314 54.05285705 -50.96731495 47.26653063 -46.9609375 40.4609375 C-43.57026951 34.68037137 -40.28039514 28.86564061 -37.13378906 22.94824219 C-29.36188024 9.19794196 -16.0632328 -0.36283419 0 0 Z " fill="#FCFCFC" transform="translate(604.75,219.5)"/>
<path d="M0 0 C6.50243864 4.75743392 13.5358772 12.07440115 15.22265625 20.234375 C15.47549753 22.1559687 15.62994768 24.09003564 15.765625 26.0234375 C16.425625 26.0234375 17.085625 26.0234375 17.765625 26.0234375 C17.84834435 28.29362423 17.90557255 30.56474199 17.953125 32.8359375 C18.00533203 34.73279297 18.00533203 34.73279297 18.05859375 36.66796875 C17.67207042 47.4868326 12.95171769 55.77406246 7.265625 64.7109375 C6.12513693 66.5380319 4.98981962 68.36827439 3.85473633 70.19873047 C3.06052587 71.47897478 2.26476759 72.75826008 1.4675293 74.03662109 C-3.63562698 82.23349574 -8.51203127 90.56557986 -13.40454102 98.88925171 C-35.11926491 135.80764124 -35.11926491 135.80764124 -51.45703125 140.59375 C-64.05118147 142.54221206 -77.54603861 142.35444665 -88.109375 134.70703125 C-97.02666718 127.64204424 -105.01737377 117.46073841 -106.51586914 105.84057617 C-107.52077137 93.30005031 -106.22140561 84.00221437 -99.63427734 73.30859375 C-98.02959607 70.68916286 -96.50029799 68.03226535 -94.97265625 65.3671875 C-92.00779777 60.21247537 -88.99573863 55.08725181 -85.96972656 49.96826172 C-83.38654646 45.58470538 -80.84104932 41.17970427 -78.296875 36.7734375 C-77.85118164 36.00499512 -77.40548828 35.23655273 -76.94628906 34.44482422 C-74.96858001 31.03480142 -73.00188162 27.61998998 -71.0703125 24.18359375 C-70.44382812 23.07886719 -69.81734375 21.97414063 -69.171875 20.8359375 C-68.64464844 19.89363281 -68.11742187 18.95132812 -67.57421875 17.98046875 C-67.13207031 17.33464844 -66.68992187 16.68882812 -66.234375 16.0234375 C-65.574375 16.0234375 -64.914375 16.0234375 -64.234375 16.0234375 C-64.12996094 15.27835937 -64.02554688 14.53328125 -63.91796875 13.765625 C-62.1259199 6.57694905 -54.87562607 1.47081547 -48.9609375 -2.43359375 C-33.02095088 -11.45407328 -15.23805033 -9.45397363 0 0 Z " fill="#FCFCFC" transform="translate(808.234375,356.9765625)"/>
<path d="M0 0 C4.66308199 -0.02468646 9.32612608 -0.04285349 13.98925781 -0.05493164 C15.57617861 -0.05996588 17.16309477 -0.06679369 18.75 -0.07543945 C21.02865749 -0.08754482 23.30725376 -0.09323733 25.5859375 -0.09765625 C26.65320572 -0.10539818 26.65320572 -0.10539818 27.74203491 -0.11329651 C32.77225659 -0.11387171 32.77225659 -0.11387171 35 1 C36.52301148 1.2528105 38.05333944 1.46237223 39.5859375 1.6484375 C40.51100098 1.76493652 41.43606445 1.88143555 42.38916016 2.00146484 C43.3744873 2.12473145 44.35981445 2.24799805 45.375 2.375 C68.12709037 5.37861251 87.42419668 12.47972701 104 29 C104.75925781 29.73605469 105.51851563 30.47210938 106.30078125 31.23046875 C116.8773398 42.13583223 122.78046201 55.95003054 128 70 C128.38285156 70.90363281 128.76570312 71.80726563 129.16015625 72.73828125 C130 75 130 75 130 78 C120.55402037 79.81359504 111.47816407 80.31463354 101.88964844 80.26074219 C99.63449017 80.25004502 97.38013395 80.26069109 95.125 80.2734375 C70.05558893 80.29993595 48.0059224 75.26316481 29 58 C26.52556047 55.43685415 24.21152019 52.79226422 22 50 C21.44183594 49.30390625 20.88367188 48.6078125 20.30859375 47.890625 C19 46 19 46 19 44 C18.34 44 17.68 44 17 44 C9.44058374 29.90180084 3.03989613 15.7913794 0 0 Z " fill="#7BD469" transform="translate(338,147)"/>
<path d="M0 0 C0.680625 -0.02578125 1.36125 -0.0515625 2.0625 -0.078125 C4.64253963 0.3588172 5.4688297 1.14930904 7 3.25 C7.68962822 6.31884557 7.55397482 9.16200173 7 12.25 C4.88035026 15.24674619 2.68639364 16.76390212 -0.2890625 18.87109375 C-16.45112665 30.33710091 -35.52391777 46.8217533 -42 66.25 C-42.66 66.25 -43.32 66.25 -44 66.25 C-44.24878906 67.05179687 -44.49757813 67.85359375 -44.75390625 68.6796875 C-46.26701246 73.01504512 -48.10110189 77.16901538 -49.9375 81.375 C-52.33231107 86.90950894 -54.42074186 92.20364219 -55.6875 98.125 C-56.727224 102.79394927 -57.78518743 105.56784655 -62 108.25 C-66.34189423 109.02533825 -68.21389337 108.75177019 -71.9375 106.375 C-74.91305267 101.86658687 -74.89665221 98.50796853 -74 93.25 C-72.61515744 88.79024172 -70.81506082 84.54882826 -69 80.25 C-68.2468633 78.16779855 -67.49686605 76.0844589 -66.75 74 C-61.90578306 61.45666711 -55.36561671 49.77605753 -47 39.25 C-45.98873047 37.93515625 -45.98873047 37.93515625 -44.95703125 36.59375 C-16.38588529 0.37240648 -16.38588529 0.37240648 0 0 Z " fill="#1B1917" transform="translate(378,343.75)"/>
<path d="M0 0 C1 3 1 3 -0.625 6.5 C-0.99882813 7.20382812 -1.37265625 7.90765625 -1.7578125 8.6328125 C-5.28342117 15.35142524 -8.20293924 22.36577742 -10.9765625 29.421875 C-12.0761313 32.19178115 -13.22148562 34.93963773 -14.375 37.6875 C-16.05847912 41.7019502 -17.69054652 45.732151 -19.28613281 49.78198242 C-21.35565513 55.02802626 -23.46862832 60.19176717 -26.07421875 65.19921875 C-28.88017305 70.65721425 -31.1267775 76.31062634 -33.25 82.0625 C-35.5111314 88.03834727 -38.2231605 93.68370243 -41.14550781 99.35571289 C-44.54049222 105.95007552 -47.31665397 112.73364695 -49.9375 119.66796875 C-51.03210177 122.07045866 -52.34366204 123.95310508 -54 126 C-54.66 124.68 -55.32 123.36 -56 122 C-56.66 122 -57.32 122 -58 122 C-56.62332606 117.35723738 -54.70280696 113.48132113 -52.25 109.3125 C-51.5281562 108.06668983 -50.80680654 106.82059321 -50.0859375 105.57421875 C-48.84758725 103.44787802 -47.60228731 101.32615029 -46.3515625 99.20703125 C-41.9280088 91.47166354 -38.97038632 83.36814153 -36 75 C-35.53991189 73.72625537 -35.07899931 72.45280819 -34.6171875 71.1796875 C-33.39516138 67.79167496 -32.18367851 64.40160103 -31 61 C-30.7620874 60.34370605 -30.5241748 59.68741211 -30.27905273 59.01123047 C-28.08769391 52.77843693 -26.70435956 46.47754696 -25.4375 40 C-25.22134033 38.91017822 -25.00518066 37.82035645 -24.7824707 36.69750977 C-23.0684968 27.8355671 -21.82806758 18.98515117 -21 10 C-19.98679687 9.61328125 -18.97359375 9.2265625 -17.9296875 8.828125 C-16.57797833 8.30246032 -15.226424 7.77639737 -13.875 7.25 C-12.87726562 6.87101562 -12.87726562 6.87101562 -11.859375 6.484375 C-7.48350115 4.76834604 -3.82259553 2.73893138 0 0 Z " fill="#F1F0F0" transform="translate(781,504)"/>
<path d="M0 0 C7.77209033 0 15.09059155 0.14381235 22.75 1 C23.64976562 1.09539062 24.54953125 1.19078125 25.4765625 1.2890625 C27.65164335 1.52045408 29.82591956 1.75939031 32 2 C30.09580329 10.89002202 24.16660585 21.8933202 16.8828125 27.32421875 C11.20170767 29.73109904 6.22450877 30.2219364 0 31 C0 20.77 0 10.54 0 0 Z " fill="#E4822C" transform="translate(497,272)"/>
<path d="M0 0 C0.93423645 3.01031744 1.04449911 3.86650268 0 7 C0.66 7 1.32 7 2 7 C0.15361375 15.00100709 -3.31194834 21.93270913 -7.0625 29.16796875 C-10.14200532 35.15262504 -12.55977502 41.37690475 -14.9375 47.66796875 C-16.03210177 50.07045866 -17.34366204 51.95310508 -19 54 C-19.66 52.68 -20.32 51.36 -21 50 C-21.66 50 -22.32 50 -23 50 C-21.62332606 45.35723738 -19.70280696 41.48132113 -17.25 37.3125 C-16.5281562 36.06668983 -15.80680654 34.82059321 -15.0859375 33.57421875 C-13.84758725 31.44787802 -12.60228731 29.32615029 -11.3515625 27.20703125 C-6.42482136 18.59175112 -3.13090536 9.39271609 0 0 Z " fill="#DDDCDC" transform="translate(746,576)"/>
<path d="M0 0 C1.29522558 3.58677852 0.70762204 5.53550702 -0.75 9 C-1.09546875 9.845625 -1.4409375 10.69125 -1.796875 11.5625 C-2.97968777 13.95884794 -4.3271744 15.92338891 -6 18 C-6.66 16.68 -7.32 15.36 -8 14 C-8.66 14 -9.32 14 -10 14 C-8.48767623 8.70686681 -6.62509127 3.60422244 -1.75 0.625 C-1.1725 0.41875 -0.595 0.2125 0 0 Z " fill="#E7E6E5" transform="translate(733,612)"/>
<path d="M0 0 C1 3 1 3 0.109375 5.234375 C-0.33921875 6.06453125 -0.7878125 6.8946875 -1.25 7.75 C-3.36367046 11.77410338 -5.23494066 15.80798408 -7 20 C-8.26293692 22.78814509 -9.53752688 25.57069708 -10.81640625 28.3515625 C-11.94546008 30.87796017 -12.99086355 33.42367929 -14 36 C-15 34 -15 34 -15 30 C-14.34 30 -13.68 30 -13 30 C-12.896875 28.96875 -12.79375 27.9375 -12.6875 26.875 C-12.00352161 23.01984907 -10.99300515 20.34824865 -9 17 C-8.34 16.67 -7.68 16.34 -7 16 C-6.34227572 12.97065509 -6.34227572 12.97065509 -6 10 C-5.34 10 -4.68 10 -4 10 C-4.061875 8.8553125 -4.061875 8.8553125 -4.125 7.6875 C-4 5 -4 5 -2 2 C-1.34 2 -0.68 2 0 2 C0 1.34 0 0.68 0 0 Z " fill="#343435" transform="translate(686,764)"/>
<path d="M0 0 C0.93423645 3.01031744 1.04449911 3.86650268 0 7 C0.66 7 1.32 7 2 7 C1.01 10.3 0.02 13.6 -1 17 C-1.99 17 -2.98 17 -4 17 C-4.99 19.31 -5.98 21.62 -7 24 C-7.66 24 -8.32 24 -9 24 C-6.41874331 15.82602049 -3.22988119 7.93359166 0 0 Z " fill="#C6C4C1" transform="translate(746,576)"/>
<path d="M0 0 C0.33 0 0.66 0 1 0 C1.19390729 2.31197155 1.37996367 4.6246029 1.5625 6.9375 C1.66691406 8.22527344 1.77132812 9.51304687 1.87890625 10.83984375 C1.91886719 11.88269531 1.95882812 12.92554688 2 14 C1.67 14.33 1.34 14.66 1 15 C0.83989519 17.73701178 0.74053172 20.4516759 0.68359375 23.19140625 C0.66281265 24.01124496 0.64203156 24.83108368 0.62062073 25.67576599 C0.55503506 28.30458901 0.49619874 30.93351504 0.4375 33.5625 C0.39432333 35.34050561 0.35070933 37.11850065 0.30664062 38.89648438 C0.19934457 43.26421634 0.09810296 47.63205227 0 52 C-0.33 52 -0.66 52 -1 52 C-1.0248905 46.20166326 -1.04294954 40.40335828 -1.05493164 34.60498047 C-1.05993176 32.63622495 -1.06673402 30.66747309 -1.07543945 28.69873047 C-1.08769573 25.85383191 -1.09327167 23.00898283 -1.09765625 20.1640625 C-1.10281754 19.29697662 -1.10797882 18.42989075 -1.11329651 17.53652954 C-1.113827 11.6360073 -0.68934355 5.85934693 0 0 Z " fill="#4C4949" transform="translate(242,470)"/>
<path d="M0 0 C0 10.23 0 20.46 0 31 C-1.65 31 -3.3 31 -5 31 C-3.68 30.67 -2.36 30.34 -1 30 C-1 20.43 -1 10.86 -1 1 C-3.97 1.66 -6.94 2.32 -10 3 C-13.50390625 2.9765625 -13.50390625 2.9765625 -16.5625 2.625 C-18.11130859 2.45871094 -18.11130859 2.45871094 -19.69140625 2.2890625 C-20.45324219 2.19367188 -21.21507812 2.09828125 -22 2 C-22 1.67 -22 1.34 -22 1 C-14.5846952 0.08128967 -7.54155613 0 0 0 Z " fill="#B16526" transform="translate(480,272)"/>
<path d="M0 0 C0.33 0 0.66 0 1 0 C2.51314607 4.07682031 3.59801841 7.41322605 2.01953125 11.6015625 C0.76720472 13.8115505 -0.53743148 15.92393797 -2 18 C-2.66 18 -3.32 18 -4 18 C-2.07289294 5.33029613 -2.07289294 5.33029613 0 0 Z " fill="#D1CFCD" transform="translate(750,565)"/>
<path d="M0 0 C1.12921875 -0.02900391 2.2584375 -0.05800781 3.421875 -0.08789062 C10.8795742 -0.143996 16.56983912 0.96010502 23.25 4.3125 C21.25 5.3125 21.25 5.3125 19.47485352 4.76049805 C18.76256592 4.47215088 18.05027832 4.18380371 17.31640625 3.88671875 C11.880421 1.97306897 6.89724106 1.97003834 1.1875 2.125 C0.22650391 2.13853516 -0.73449219 2.15207031 -1.72460938 2.16601562 C-4.06701752 2.20097694 -6.40819156 2.25003896 -8.75 2.3125 C-8.75 2.6425 -8.75 2.9725 -8.75 3.3125 C-12.38 3.3125 -16.01 3.3125 -19.75 3.3125 C-19.42 2.6525 -19.09 1.9925 -18.75 1.3125 C-12.56935917 -0.08806415 -6.30527839 0.05325404 0 0 Z " fill="#5F5F60" transform="translate(783.75,331.6875)"/>
<path d="M0 0 C-2 3 -2 3 -4.6171875 3.546875 C-12.19246596 4.01919452 -19.45921004 3.88315558 -27 3 C-27 2.67 -27 2.34 -27 2 C-17.95960217 0.72958023 -9.15564771 -0.34915606 0 0 Z " fill="#5D5C5D" transform="translate(482,254)"/>
<path d="M0 0 C0.99 0 1.98 0 3 0 C-1.98969072 15.98969072 -1.98969072 15.98969072 -6 20 C-6 18.02 -6 16.04 -6 14 C-5.34 14 -4.68 14 -4 14 C-3.896875 12.989375 -3.79375 11.97875 -3.6875 10.9375 C-2.96295233 6.78781792 -1.77730734 3.78643737 0 0 Z " fill="#363636" transform="translate(661,816)"/>
<path d="M0 0 C2.28639487 8.35905963 0.42991259 16.62479771 -1 25 C-5.39489369 16.99814177 -2.13111103 8.32148115 0 0 Z " fill="#3F3D3C" transform="translate(246,449)"/>
<path d="M0 0 C0.33 0.66 0.66 1.32 1 2 C0.67 2.99 0.34 3.98 0 5 C-0.22179785 6.89212737 -0.40614015 8.78884472 -0.5625 10.6875 C-0.68818359 12.17830078 -0.68818359 12.17830078 -0.81640625 13.69921875 C-0.87699219 14.45847656 -0.93757812 15.21773437 -1 16 C-1.99 15.67 -2.98 15.34 -4 15 C-4.29380531 6.33274336 -4.29380531 6.33274336 -2 2 C-1.34 1.34 -0.68 0.68 0 0 Z " fill="#3A3939" transform="translate(201,637)"/>
<path d="M0 0 C1 4 1 4 -0.14453125 6.25390625 C-0.69496094 7.01574219 -1.24539063 7.77757812 -1.8125 8.5625 C-2.35519531 9.32691406 -2.89789062 10.09132813 -3.45703125 10.87890625 C-3.96621094 11.57886719 -4.47539063 12.27882813 -5 13 C-5.99 14.485 -5.99 14.485 -7 16 C-7.66 15.67 -8.32 15.34 -9 15 C-6.03 10.05 -3.06 5.1 0 0 Z " fill="#3E3E3E" transform="translate(591,381)"/>
<path d="M0 0 C0.66 0 1.32 0 2 0 C0.46356148 3.68069887 -1.78150945 5.98775204 -4.625 8.75 C-5.85089844 9.94882812 -5.85089844 9.94882812 -7.1015625 11.171875 C-7.72804688 11.77515625 -8.35453125 12.3784375 -9 13 C-9.66 12.67 -10.32 12.34 -11 12 C-9.54234835 10.37438849 -8.08385614 8.74953066 -6.625 7.125 C-5.81289063 6.22007812 -5.00078125 5.31515625 -4.1640625 4.3828125 C-2.80923795 2.89103817 -1.42494565 1.42494565 0 0 Z " fill="#CA7124" transform="translate(363,373)"/>
<path d="M0 0 C0.33 0 0.66 0 1 0 C1.144375 0.7425 1.28875 1.485 1.4375 2.25 C1.91860773 4.84264393 1.91860773 4.84264393 2.53125 6.6875 C3.20931727 10.03263188 3.1042333 13.35355179 3.0625 16.75 C3.05798828 17.44738281 3.05347656 18.14476562 3.04882812 18.86328125 C3.0371002 20.57555803 3.01916653 22.28779033 3 24 C2.67 24 2.34 24 2 24 C0.70098079 15.95072024 -0.33853295 8.16240568 0 0 Z " fill="#474443" transform="translate(242,524)"/>
<path d="M0 0 C1 3 1 3 -0.4375 6.1875 C-1.2109375 7.5796875 -1.2109375 7.5796875 -2 9 C-2.33 8.34 -2.66 7.68 -3 7 C-5.64 7 -8.28 7 -11 7 C-8.62463329 5.41642219 -6.23494336 3.88406307 -3.8125 2.375 C-2.73935547 1.70597656 -2.73935547 1.70597656 -1.64453125 1.0234375 C-1.10183594 0.68570312 -0.55914063 0.34796875 0 0 Z " fill="#CBCAC9" transform="translate(781,504)"/>
<path d="M0 0 C6.86515862 -0.26404456 13.25846717 0.74158054 20 2 C20 2.33 20 2.66 20 3 C18.06403108 3.22211116 16.12610672 3.42722992 14.1875 3.625 C12.56908203 3.79902344 12.56908203 3.79902344 10.91796875 3.9765625 C8 4 8 4 5 2 C3.34450469 1.61500109 1.6777567 1.27206865 0 1 C0 0.67 0 0.34 0 0 Z " fill="#5C5A5C" transform="translate(519,256)"/>
<path d="M0 0 C0.66 0.33 1.32 0.66 2 1 C-0.44773169 6.20142984 -4.40211381 8.82188865 -9 12 C-7.55575365 8.76138697 -5.74227753 6.38030837 -3.375 3.75 C-2.74335937 3.04359375 -2.11171875 2.3371875 -1.4609375 1.609375 C-0.97882812 1.07828125 -0.49671875 0.5471875 0 0 Z " fill="#3D3E3E" transform="translate(565,217)"/>
<path d="M0 0 C0.92381059 3.45683961 1.29974222 6.4030933 1 10 C-0.3125 11.9375 -0.3125 11.9375 -2 14 C-3.10681609 16.29838837 -4.0438769 18.63245709 -5 21 C-6 19 -6 19 -5.29296875 16.6796875 C-4.92816406 15.75414062 -4.56335938 14.82859375 -4.1875 13.875 C-2.43730246 9.27846043 -1.08528424 4.79333872 0 0 Z " fill="#56381F" transform="translate(737,547)"/>
<path d="M0 0 C0.33 1.32 0.66 2.64 1 4 C1.99 4 2.98 4 4 4 C3.38722388 6.96175123 2.74627478 8.38058783 1 11 C0.34 9.68 -0.32 8.36 -1 7 C-1.66 7 -2.32 7 -3 7 C-1.125 1.125 -1.125 1.125 0 0 Z " fill="#D8D6D4" transform="translate(726,619)"/>
<path d="M0 0 C1.16161779 2.86578759 0.9946154 4.01630163 0.00390625 7.015625 C-0.70958984 8.61664062 -0.70958984 8.61664062 -1.4375 10.25 C-1.91058594 11.32765625 -2.38367188 12.4053125 -2.87109375 13.515625 C-3.24363281 14.33546875 -3.61617187 15.1553125 -4 16 C-5 14 -5 14 -5 10 C-4.34 10 -3.68 10 -3 10 C-2.87625 8.906875 -2.7525 7.81375 -2.625 6.6875 C-2 3 -2 3 0 0 Z " fill="#2E2E2E" transform="translate(676,784)"/>
<path d="M0 0 C0.66 0 1.32 0 2 0 C0.36041242 5.23272633 -1.38952035 10.15196636 -4 15 C-4.33 15 -4.66 15 -5 15 C-5 13.02 -5 11.04 -5 9 C-4.01 8.67 -3.02 8.34 -2 8 C-2.185625 7.38125 -2.37125 6.7625 -2.5625 6.125 C-3 4 -3 4 -2 2 C-1.34 2 -0.68 2 0 2 C0 1.34 0 0.68 0 0 Z " fill="#373838" transform="translate(758,600)"/>
<path d="M0 0 C0.66 0.66 1.32 1.32 2 2 C1.07161713 3.31896465 0.13194268 4.62998689 -0.8125 5.9375 C-1.59560547 7.03384766 -1.59560547 7.03384766 -2.39453125 8.15234375 C-4 10 -4 10 -7 11 C-5.5140084 6.40693504 -3.14985318 3.56430755 0 0 Z " fill="#D37629" transform="translate(347,391)"/>
<path d="M0 0 C0.66 0.33 1.32 0.66 2 1 C-1.3 4.3 -4.6 7.6 -8 11 C-8.66 10.67 -9.32 10.34 -10 10 C-8.90033225 8.70450101 -7.79508199 7.41373929 -6.6875 6.125 C-6.07261719 5.40570312 -5.45773438 4.68640625 -4.82421875 3.9453125 C-3 2 -3 2 0 0 Z " fill="#CCCDCE" transform="translate(214,620)"/>
<path d="M0 0 C0 3 0 3 -1.96875 5.26171875 C-2.8040625 6.06222656 -3.639375 6.86273438 -4.5 7.6875 C-5.3353125 8.49574219 -6.170625 9.30398438 -7.03125 10.13671875 C-7.6809375 10.75160156 -8.330625 11.36648438 -9 12 C-9.66 11.67 -10.32 11.34 -11 11 C-9.92173635 9.72486237 -8.83714481 8.45507431 -7.75 7.1875 C-7.14671875 6.47980469 -6.5434375 5.77210938 -5.921875 5.04296875 C-4.07629602 3.08110329 -2.20054668 1.54330375 0 0 Z " fill="#D5D6D7" transform="translate(756,357)"/>
<path d="M0 0 C0.66 0.33 1.32 0.66 2 1 C-1.63 4.63 -5.26 8.26 -9 12 C-9 7.8407692 -6.75316432 5.85455565 -4 3 C-1.6875 1.125 -1.6875 1.125 0 0 Z " fill="#D1D1D1" transform="translate(581,227)"/>
<path d="M0 0 C0.66 0.66 1.32 1.32 2 2 C1.64700993 5.44165321 0.95418308 7.06872538 -1 10 C-1.66 10 -2.32 10 -3 10 C-2.67 7.69 -2.34 5.38 -2 3 C-1.34 3 -0.68 3 0 3 C0 2.01 0 1.02 0 0 Z " fill="#EBEAE6" transform="translate(749,573)"/>
<path d="M0 0 C0.6875 1.625 0.6875 1.625 1 4 C-0.4375 7.25 -0.4375 7.25 -2 10 C-2.66 10 -3.32 10 -4 10 C-4.33 10.66 -4.66 11.32 -5 12 C-5 10.68 -5 9.36 -5 8 C-4.34 8 -3.68 8 -3 8 C-2.87625 7.4225 -2.7525 6.845 -2.625 6.25 C-1.99351176 3.97664233 -1.11141809 2.0746471 0 0 Z " fill="#EBEAE8" transform="translate(742,592)"/>
<path d="M0 0 C0.66 0.33 1.32 0.66 2 1 C-0.25740623 3.33524782 -2.2805761 5.18705073 -5 7 C-6.32 6.67 -7.64 6.34 -9 6 C-6.03 4.02 -3.06 2.04 0 0 Z " fill="#414242" transform="translate(339,639)"/>
<path d="M0 0 C-3.60957611 3.2910841 -6.12637153 4.54663921 -11 5 C-4.83050847 -1.61016949 -4.83050847 -1.61016949 0 0 Z " fill="#31241B" transform="translate(300,551)"/>
<path d="M0 0 C0.66 0.99 1.32 1.98 2 3 C1.34 3 0.68 3 0 3 C-0.2165625 4.175625 -0.2165625 4.175625 -0.4375 5.375 C-1 8 -1 8 -2 10 C-2.99 10 -3.98 10 -5 10 C-3.66511872 6.40608886 -2.03977277 3.24509304 0 0 Z " fill="#393A39" transform="translate(808,432)"/>
<path d="M0 0 C0.65234375 1.734375 0.65234375 1.734375 1 4 C0.00390625 6.140625 0.00390625 6.140625 -1.4375 8.25 C-1.91058594 8.95640625 -2.38367188 9.6628125 -2.87109375 10.390625 C-3.24363281 10.92171875 -3.61617187 11.4528125 -4 12 C-4.625 10.1875 -4.625 10.1875 -5 8 C-4.34 7.01 -3.68 6.02 -3 5 C-2.34 5 -1.68 5 -1 5 C-0.67 3.35 -0.34 1.7 0 0 Z " fill="#252627" transform="translate(733,385)"/>
<path d="M0 0 C0.99 0.99 1.98 1.98 3 3 C2.34 3 1.68 3 1 3 C0.9175 3.94875 0.835 4.8975 0.75 5.875 C0.5025 6.90625 0.255 7.9375 0 9 C-2.046875 10.1953125 -2.046875 10.1953125 -4 11 C-3.52269162 9.5410574 -3.04308958 8.08286504 -2.5625 6.625 C-2.29566406 5.81289063 -2.02882813 5.00078125 -1.75390625 4.1640625 C-1 2 -1 2 0 0 Z " fill="#343434" transform="translate(701,689)"/>
<path d="M0 0 C0.99 0 1.98 0 3 0 C2.54917531 1.46067199 2.08906463 2.91848032 1.625 4.375 C1.36976563 5.18710937 1.11453125 5.99921875 0.8515625 6.8359375 C0 9 0 9 -2 11 C-2.28571429 3.57142857 -2.28571429 3.57142857 0 0 Z " fill="#424142" transform="translate(750,616)"/>
<path d="M0 0 C0.99 0.66 1.98 1.32 3 2 C2.67 3.65 2.34 5.3 2 7 C1.34 6.67 0.68 6.34 0 6 C-0.33 6.66 -0.66 7.32 -1 8 C-1.66 8 -2.32 8 -3 8 C-1.125 2.25 -1.125 2.25 0 0 Z " fill="#CDCDCD" transform="translate(736,600)"/>
<path d="M0 0 C0.66 0 1.32 0 2 0 C1.67 1.65 1.34 3.3 1 5 C0.34 5 -0.32 5 -1 5 C-1.33 5.99 -1.66 6.98 -2 8 C-2.66 8 -3.32 8 -4 8 C-2.87548273 5.0280615 -1.77706209 2.66559313 0 0 Z " fill="#454547" transform="translate(507,179)"/>
<path d="M0 0 C0.33 0 0.66 0 1 0 C0.49202991 4.3177458 -0.19682779 8.03302114 -2 12 C-3.45707274 9.08585452 -2.68877573 7.13079879 -2 4 C-0.9375 1.625 -0.9375 1.625 0 0 Z " fill="#29292A" transform="translate(690,752)"/>
<path d="M0 0 C1.46726798 3.81489674 0.43336419 6.29011622 -1 10 C-1.99 10 -2.98 10 -4 10 C-2.8905928 6.51329166 -1.73662334 3.22515763 0 0 Z " fill="#3E2C1B" transform="translate(719,595)"/>
<path d="M0 0 C0.66 0.66 1.32 1.32 2 2 C1.74739753 5.78903708 -0.27849443 7.54186593 -3 10 C-2.01 6.7 -1.02 3.4 0 0 Z " fill="#313131" transform="translate(755,566)"/>
<path d="M0 0 C0.75 1.5625 0.75 1.5625 1 4 C-0.13084437 6.50286409 -1.52139516 8.67007722 -3 11 C-3.33 9.68 -3.66 8.36 -4 7 C-3.34 7 -2.68 7 -2 7 C-1.855625 6.030625 -1.71125 5.06125 -1.5625 4.0625 C-1 1 -1 1 0 0 Z " fill="#29292A" transform="translate(539,289)"/>
<path d="M0 0 C-3.79692186 2.82561627 -6.18569279 4.56638908 -11 4 C-3.77464789 -1.88732394 -3.77464789 -1.88732394 0 0 Z " fill="#51504F" transform="translate(393,275)"/>
<path d="M0 0 C0 0.33 0 0.66 0 1 C-1.79008467 1.22151549 -3.58218162 1.42682213 -5.375 1.625 C-6.37273438 1.74101563 -7.37046875 1.85703125 -8.3984375 1.9765625 C-9.25695312 1.98429688 -10.11546875 1.99203125 -11 2 C-11.66 1.34 -12.32 0.68 -13 0 C-8.38926889 -1.29676812 -4.66159911 -0.71109139 0 0 Z " fill="#252524" transform="translate(546,743)"/>
<path d="M0 0 C0.33 0 0.66 0 1 0 C1.36923077 6.52307692 1.36923077 6.52307692 -0.5 8.9375 C-0.995 9.288125 -1.49 9.63875 -2 10 C-2.89868727 7.48367565 -3.1616905 6.39267692 -2.125 3.875 C-1.75375 3.25625 -1.3825 2.6375 -1 2 C-0.67 1.34 -0.34 0.68 0 0 Z " fill="#383938" transform="translate(721,682)"/>
<path d="M0 0 C0.99 0 1.98 0 3 0 C2.01 2.97 1.02 5.94 0 9 C-0.66 7.68 -1.32 6.36 -2 5 C-1.67 4.34 -1.34 3.68 -1 3 C-0.34 3 0.32 3 1 3 C0.67 2.01 0.34 1.02 0 0 Z " fill="#3D3C3C" transform="translate(805,488)"/>
<path d="M0 0 C1.13643966 3.40931897 0.86747764 4.00335456 -0.4375 7.1875 C-0.86869141 8.26064453 -0.86869141 8.26064453 -1.30859375 9.35546875 C-1.53675781 9.89816406 -1.76492188 10.44085938 -2 11 C-2.33 11 -2.66 11 -3 11 C-3.25 4.375 -3.25 4.375 -1 1 C-0.67 0.67 -0.34 0.34 0 0 Z " fill="#373737" transform="translate(840,408)"/>
<path d="M0 0 C0.99 0.33 1.98 0.66 3 1 C3.33 3.64 3.66 6.28 4 9 C3.01 8.67 2.02 8.34 1 8 C0.67 5.36 0.34 2.72 0 0 Z " fill="#262625" transform="translate(752,310)"/>
<path d="M0 0 C0.33 0 0.66 0 1 0 C1.125 3.375 1.125 3.375 1 7 C0.34 7.66 -0.32 8.32 -1 9 C-1.66 9 -2.32 9 -3 9 C-2.01 6.03 -1.02 3.06 0 0 Z " fill="#3D3E3D" transform="translate(637,832)"/>
<path d="M0 0 C0.66 0.33 1.32 0.66 2 1 C1.67 3.97 1.34 6.94 1 10 C-1.17766075 5.64467851 -1.03039555 4.53374042 0 0 Z " fill="#242324" transform="translate(756,530)"/>
<path d="M0 0 C0.66 0.33 1.32 0.66 2 1 C0.90716423 2.03295436 -0.19970579 3.05107835 -1.3125 4.0625 C-1.92738281 4.63097656 -2.54226563 5.19945312 -3.17578125 5.78515625 C-3.77777344 6.18605469 -4.37976563 6.58695312 -5 7 C-5.99 6.67 -6.98 6.34 -8 6 C-5.36 4.02 -2.72 2.04 0 0 Z " fill="#BF6924" transform="translate(671,487)"/>
<path d="M0 0 C2.64 0.33 5.28 0.66 8 1 C8 1.33 8 1.66 8 2 C1.565 2.495 1.565 2.495 -5 3 C-5 2.67 -5 2.34 -5 2 C-3.35 2 -1.7 2 0 2 C0 1.34 0 0.68 0 0 Z " fill="#363434" transform="translate(463,240)"/>
<path d="M0 0 C0 0.33 0 0.66 0 1 C-5.57432514 2.66251802 -9.3067505 3.18609365 -15 2 C-15 1.67 -15 1.34 -15 1 C-9.91913204 0.15318867 -5.15171623 -0.09038099 0 0 Z " fill="#31412C" transform="translate(463,226)"/>
<path d="M0 0 C0.33 0.66 0.66 1.32 1 2 C1.66 2 2.32 2 3 2 C3.33 4.64 3.66 7.28 4 10 C1.997499 7.997499 1.06784629 6.593341 0 4 C0 2.68 0 1.36 0 0 Z " fill="#ACACAD" transform="translate(479,204)"/>
<path d="M0 0 C0.66 1.32 1.32 2.64 2 4 C-0.475 5.485 -0.475 5.485 -3 7 C-3 3.48283697 -2.17554415 2.62878252 0 0 Z " fill="#373839" transform="translate(194,614)"/>
<path d="M0 0 C-3.96 1.98 -3.96 1.98 -8 4 C-8.66 3.34 -9.32 2.68 -10 2 C-4.5 -1.125 -4.5 -1.125 0 0 Z " fill="#55341E" transform="translate(329,535)"/>
<path d="M0 0 C0.99 0 1.98 0 3 0 C2.40138258 2.35171131 1.73075648 4.6859378 1 7 C0.01 7.495 0.01 7.495 -1 8 C-1 6.35 -1 4.7 -1 3 C-0.34 3 0.32 3 1 3 C0.67 2.01 0.34 1.02 0 0 Z " fill="#393A39" transform="translate(791,521)"/>
<path d="M0 0 C0.66 0 1.32 0 2 0 C1.39816251 2.02045442 0.72693904 4.02111039 0 6 C-0.99 6.495 -0.99 6.495 -2 7 C-2.33 6.01 -2.66 5.02 -3 4 C-1.6875 1.8125 -1.6875 1.8125 0 0 Z " fill="#242323" transform="translate(604,392)"/>
<path d="M0 0 C0.66 0.99 1.32 1.98 2 3 C0.35 4.32 -1.3 5.64 -3 7 C-3.66 6.67 -4.32 6.34 -5 6 C-3.35 4.02 -1.7 2.04 0 0 Z " fill="#2D2D2E" transform="translate(306,334)"/>
</svg>
